<svg width="18" height="18" viewBox="0 0 18 18" fill="none" xmlns="http://www.w3.org/2000/svg">
<path d="M1.99593 0.0167599C2.04357 0.0165819 2.0912 0.016404 2.14028 0.0162206C2.21848 0.0161945 2.21848 0.0161945 2.29827 0.0161678C2.38158 0.0159372 2.38158 0.0159372 2.46658 0.0157021C2.65335 0.0152325 2.8401 0.0150159 3.02687 0.0148012C3.16054 0.0145241 3.29421 0.0142341 3.42788 0.0139322C3.82957 0.0130919 4.23126 0.0125593 4.63296 0.0121066C4.74652 0.0119764 4.86008 0.011837 4.97364 0.0116945C5.67957 0.0108092 6.38551 0.0100362 7.09144 0.00959998C7.25492 0.00949725 7.41839 0.00939339 7.58187 0.00928769C7.6225 0.00926153 7.66313 0.00923537 7.70499 0.00920841C8.36216 0.00876534 9.01932 0.00760116 9.67649 0.00613861C10.352 0.00464766 11.0275 0.00382421 11.703 0.00364138C12.0819 0.00352202 12.4609 0.00311414 12.8398 0.00195456C13.1967 0.000864204 13.5536 0.000679431 13.9105 0.00109134C14.041 0.00109906 14.1716 0.000809795 14.3021 0.000191736C15.4033 -0.00473481 16.2498 0.0823508 17.0891 0.602362C17.946 1.20599 18.004 1.91353 17.9991 2.70309C17.9992 2.78496 17.9994 2.86682 17.9997 2.94869C18 3.11916 17.9996 3.28961 17.9986 3.46008C17.9974 3.67814 17.9981 3.89617 17.9993 4.11423C18.0001 4.28282 17.9999 4.4514 17.9993 4.61999C17.9992 4.70041 17.9993 4.78083 17.9998 4.86125C18.0004 4.97351 17.9995 5.08573 17.9984 5.19799C17.9988 5.23085 17.9992 5.26372 17.9997 5.29759C17.9956 5.50753 17.9402 5.66749 17.7614 5.84269C17.5052 6.0055 17.2909 6.03055 16.9483 6.02788C16.6883 6.00837 16.5473 5.91202 16.3808 5.7857C16.2634 5.67533 16.2332 5.61933 16.2325 5.48619C16.2322 5.45557 16.2319 5.42495 16.2317 5.3934C16.2316 5.35971 16.2315 5.32603 16.2315 5.29133C16.2312 5.25591 16.231 5.2205 16.2307 5.18401C16.2301 5.10688 16.2297 5.02975 16.2293 4.95262C16.2287 4.83041 16.2277 4.7082 16.2265 4.586C16.2233 4.23845 16.2205 3.8909 16.2187 3.54334C16.2176 3.33089 16.2157 3.11845 16.2134 2.906C16.2127 2.82513 16.2122 2.74425 16.2121 2.66337C16.2118 2.54989 16.2106 2.43644 16.2091 2.32296C16.2093 2.28978 16.2095 2.25659 16.2096 2.2224C16.2037 1.90464 16.099 1.64874 15.769 1.41466C15.4281 1.22064 15.0135 1.17428 14.5768 1.17456C14.5185 1.17451 14.4602 1.17446 14.4002 1.17441C14.3371 1.17454 14.2739 1.17466 14.2089 1.17479C14.1418 1.17479 14.0747 1.17478 14.0056 1.17478C13.8223 1.17477 13.639 1.17497 13.4557 1.17522C13.2639 1.17544 13.0721 1.17546 12.8803 1.1755C12.5174 1.17561 12.1545 1.1759 11.7916 1.17625C11.3783 1.17664 10.9651 1.17683 10.5518 1.17701C9.70193 1.17738 8.85206 1.17799 8.0022 1.17878C8.06012 1.19148 8.11805 1.20419 8.17773 1.21728C8.39476 1.26504 8.61147 1.31342 8.8281 1.36199C8.92149 1.38283 9.01497 1.4035 9.10853 1.424C9.93477 1.60524 10.6099 1.79615 11.0388 2.33599C11.271 2.64854 11.2702 2.9712 11.2679 3.31219C11.2679 3.36106 11.268 3.40993 11.2681 3.45881C11.2684 3.59243 11.268 3.72606 11.2674 3.85968C11.267 4.00403 11.2671 4.14839 11.2672 4.29274C11.2673 4.54261 11.2669 4.79249 11.2663 5.04237C11.2655 5.40364 11.2652 5.76492 11.2651 6.12619C11.2649 6.71238 11.2642 7.29857 11.2632 7.88476C11.2622 8.45409 11.2615 9.02341 11.261 9.59274C11.261 9.62785 11.261 9.66296 11.2609 9.69914C11.2608 9.87529 11.2607 10.0514 11.2605 10.2276C11.2594 11.6882 11.2576 13.1488 11.2552 14.6094C11.7191 14.6065 12.183 14.6031 12.6469 14.5994C12.8623 14.5976 13.0777 14.596 13.2932 14.5946C13.5014 14.5933 13.7096 14.5917 13.9178 14.5899C13.9969 14.5892 14.0761 14.5887 14.1552 14.5883C15.0183 14.5874 15.0183 14.5874 15.7675 14.3289C16.1483 14.0603 16.203 13.7975 16.2007 13.4404C16.2009 13.4048 16.2011 13.3691 16.2013 13.3325C16.2016 13.2555 16.2018 13.1785 16.2017 13.1015C16.2016 12.9796 16.2023 12.8577 16.2032 12.7358C16.2056 12.3893 16.2069 12.0429 16.2073 11.6964C16.2075 11.4842 16.2088 11.272 16.2107 11.0598C16.2112 10.979 16.2113 10.8983 16.2111 10.8175C16.2107 10.7046 16.2116 10.5917 16.2128 10.4788C16.2121 10.4289 16.2121 10.4289 16.2115 10.378C16.2152 10.181 16.2514 10.0662 16.4496 9.91046C16.7135 9.75512 16.8632 9.7246 17.2084 9.72759C17.4586 9.74174 17.6047 9.80384 17.7745 9.92361C17.98 10.1296 17.9868 10.3019 17.9865 10.5432C17.9868 10.5786 17.9872 10.614 17.9875 10.6504C17.9885 10.7675 17.9887 10.8845 17.9889 11.0015C17.9892 11.0833 17.9895 11.165 17.9899 11.2467C17.9905 11.4183 17.9907 11.5899 17.9907 11.7615C17.9907 11.9801 17.9921 12.1986 17.9939 12.4171C17.9951 12.5862 17.9953 12.7552 17.9952 12.9243C17.9953 13.0048 17.9958 13.0853 17.9966 13.1657C18.0035 13.9127 17.907 14.5564 17.1008 15.1231C16.5245 15.4989 15.8483 15.745 15.0257 15.7395C14.9847 15.7396 14.9437 15.7396 14.9015 15.7396C14.7672 15.7395 14.6329 15.739 14.4987 15.7384C14.4051 15.7383 14.3115 15.7382 14.2179 15.7381C13.9725 15.7379 13.7271 15.7372 13.4817 15.7364C13.2309 15.7357 12.9802 15.7354 12.7294 15.735C12.238 15.7343 11.7466 15.7331 11.2552 15.7316C11.2557 15.7589 11.2561 15.7862 11.2566 15.8143C11.2584 15.939 11.2595 16.0637 11.2606 16.1884C11.2613 16.2313 11.262 16.2743 11.2627 16.3185C11.2647 16.6162 11.2431 16.863 11.0454 17.1343C11.0111 17.1818 11.0111 17.1818 10.9761 17.2303C10.6805 17.5947 10.2428 17.781 9.68119 17.9408C8.91531 18.0876 8.15916 17.9358 7.43836 17.7645C7.3407 17.7422 7.24298 17.7199 7.14521 17.6978C6.94013 17.6512 6.73532 17.6042 6.53068 17.5567C6.22196 17.4854 5.91209 17.4167 5.60173 17.3486C5.55074 17.3374 5.49975 17.3263 5.44722 17.3147C5.34412 17.2921 5.24103 17.2695 5.13793 17.247C4.82948 17.1792 4.52142 17.1107 4.21332 17.0422C3.95204 16.9842 3.69072 16.9263 3.42927 16.8686C3.16902 16.8112 2.9089 16.7536 2.64887 16.6957C2.55167 16.6742 2.45443 16.6527 2.35713 16.6313C1.43903 16.4293 0.706311 16.2514 0.205897 15.6624C0.0666091 15.4626 0.0138538 15.2807 0.0134728 15.0609C0.0132888 15.0369 0.0131049 15.0129 0.0129153 14.9881C0.0124284 14.9079 0.0126846 14.8276 0.01294 14.7473C0.0127438 14.6891 0.0125022 14.6309 0.0122194 14.5727C0.0115778 14.4128 0.0115915 14.253 0.0117152 14.0932C0.0117366 13.9207 0.0111574 13.7483 0.0106598 13.5758C0.00978833 13.238 0.00949982 12.9002 0.0094413 12.5625C0.00939143 12.2879 0.00917572 12.0133 0.00884305 11.7387C0.00791895 10.96 0.00743475 10.1814 0.00751344 9.40279C0.00751763 9.36082 0.00752193 9.31885 0.00752625 9.2756C0.00753054 9.23358 0.00753484 9.19156 0.00753926 9.14826C0.00758191 8.46723 0.00657778 7.7862 0.00509821 7.10517C0.00359079 6.4058 0.00286613 5.70643 0.00295679 5.00706C0.00299162 4.61445 0.00270354 4.22185 0.00157394 3.82925C0.000618312 3.49497 0.000390229 3.16069 0.00110258 2.82642C0.00144514 2.65592 0.00145161 2.48542 0.000540955 2.31492C-0.000284858 2.1587 -0.000133818 2.00249 0.000780537 1.84627C0.000941512 1.78989 0.000751487 1.73351 0.00016567 1.67714C-0.00426079 1.22078 0.091876 0.862205 0.551657 0.512502C0.577967 0.491257 0.604277 0.470011 0.631385 0.448122C0.972314 0.194207 1.48142 0.0177832 1.99593 0.0167599ZM1.8109 1.31904C1.71751 1.47155 1.69283 1.60043 1.69276 1.7645C1.69261 1.78735 1.69246 1.81021 1.6923 1.83376C1.69192 1.91025 1.69228 1.98672 1.69264 2.06321C1.69252 2.11864 1.69235 2.17407 1.69214 2.2295C1.69171 2.38175 1.69192 2.534 1.69225 2.68625C1.69249 2.85047 1.69212 3.01469 1.69183 3.17891C1.69136 3.5006 1.69146 3.82228 1.69177 4.14396C1.69201 4.40537 1.69204 4.66678 1.69192 4.92819C1.69191 4.96537 1.69189 5.00256 1.69187 5.04087C1.69184 5.11641 1.69181 5.19195 1.69177 5.26749C1.69147 5.97604 1.69182 6.68459 1.69238 7.39314C1.69285 8.00129 1.69277 8.60944 1.69229 9.21759C1.69172 9.92359 1.6915 10.6296 1.69182 11.3356C1.69186 11.4108 1.69189 11.4861 1.69192 11.5614C1.69194 11.5984 1.69196 11.6354 1.69197 11.6736C1.69206 11.9347 1.69191 12.1959 1.69166 12.457C1.69137 12.7752 1.69145 13.0933 1.69201 13.4115C1.69228 13.5739 1.69239 13.7363 1.69204 13.8987C1.69173 14.0473 1.6919 14.1958 1.69246 14.3444C1.69258 14.3982 1.69252 14.452 1.69227 14.5058C1.69195 14.5789 1.69227 14.652 1.69276 14.7251C1.69278 14.7657 1.69279 14.8063 1.69281 14.8481C1.71074 15.0007 1.75905 15.1242 1.89695 15.2474C2.06068 15.3312 2.23413 15.371 2.42792 15.4129C2.46884 15.4221 2.50977 15.4314 2.55193 15.4409C2.68786 15.4714 2.82407 15.5014 2.96029 15.5313C3.0568 15.5529 3.15328 15.5745 3.24975 15.5961C3.45332 15.6417 3.65699 15.6871 3.86074 15.7324C4.16391 15.7998 4.46654 15.8682 4.76902 15.937C5.21555 16.0385 5.66237 16.1394 6.10949 16.2398C6.3628 16.2966 6.61601 16.3537 6.86902 16.4111C7.12066 16.4683 7.37253 16.525 7.62457 16.5813C7.71886 16.6025 7.81308 16.6238 7.9072 16.6453C8.03734 16.675 8.16775 16.7041 8.29825 16.7331C8.35466 16.7462 8.35466 16.7462 8.41221 16.7596C8.67334 16.8166 8.93454 16.8477 9.20897 16.8187C9.38116 16.7299 9.45518 16.6757 9.52378 16.5381C9.52884 16.4632 9.53066 16.3882 9.53083 16.3133C9.53095 16.2902 9.53107 16.2672 9.5312 16.2435C9.53155 16.1658 9.53153 16.0881 9.53151 16.0103C9.53168 15.9543 9.53187 15.8982 9.53209 15.8422C9.53262 15.6877 9.53281 15.5332 9.53295 15.3787C9.53316 15.2123 9.53366 15.0458 9.53412 14.8794C9.53515 14.4772 9.53568 14.0751 9.53615 13.6729C9.53638 13.4837 9.53666 13.2944 9.53693 13.1051C9.53783 12.4762 9.53859 11.8473 9.53897 11.2184C9.53907 11.0551 9.53917 10.8919 9.53927 10.7286C9.5393 10.6881 9.53932 10.6475 9.53935 10.6057C9.53978 9.94799 9.54111 9.2903 9.54282 8.63262C9.54455 7.95778 9.5455 7.28294 9.54566 6.6081C9.54578 6.22904 9.54624 5.84999 9.54758 5.47093C9.54872 5.14819 9.54914 4.82546 9.54863 4.50273C9.54839 4.338 9.54849 4.17328 9.54951 4.00856C9.55043 3.85781 9.55038 3.70708 9.54957 3.55633C9.54944 3.50175 9.54967 3.44716 9.55029 3.39258C9.55108 3.31844 9.55058 3.24435 9.54976 3.17021C9.54983 3.10842 9.54983 3.10842 9.54991 3.04538C9.51786 2.90644 9.44503 2.83051 9.31391 2.72172C9.15635 2.66184 9.15635 2.66184 8.96702 2.62287C8.93089 2.61448 8.89477 2.60608 8.85754 2.59743C8.77565 2.57854 8.69358 2.56 8.61137 2.54175C8.46418 2.50905 8.31753 2.47539 8.17089 2.44161C7.81406 2.35972 7.45646 2.27942 7.09875 2.19928C7.03406 2.18477 6.96936 2.17026 6.9027 2.15531C6.59627 2.08661 6.2898 2.018 5.98326 1.94951C5.63156 1.87093 5.28004 1.79199 4.92866 1.71277C4.62213 1.6437 4.31538 1.57508 4.00854 1.50663C3.87877 1.4776 3.74907 1.44844 3.61945 1.41913C3.43863 1.37827 3.25755 1.33796 3.0764 1.29776C3.0233 1.28563 2.97019 1.2735 2.91548 1.261C2.3228 1.1302 2.3228 1.1302 1.8109 1.31904Z" fill="black"/>
</svg>
