<svg width="15" height="16" viewBox="0 0 15 16" fill="none" xmlns="http://www.w3.org/2000/svg">
<path d="M5.35997 12.33L6.02664 9.58337H2.13997C1.93298 9.58337 1.72883 9.53518 1.54369 9.44261C1.35855 9.35004 1.1975 9.21564 1.07331 9.05004C0.949111 8.88445 0.865176 8.69221 0.828148 8.48855C0.791119 8.2849 0.802016 8.07542 0.859974 7.87671L2.41331 2.54337C2.49409 2.26642 2.66251 2.02314 2.89331 1.85004C3.1241 1.67694 3.40481 1.58337 3.69331 1.58337H12.6933C13.0469 1.58337 13.3861 1.72385 13.6361 1.9739C13.8862 2.22395 14.0266 2.56309 14.0266 2.91671V8.25004C14.0266 8.60366 13.8862 8.9428 13.6361 9.19285C13.3861 9.4429 13.0469 9.58337 12.6933 9.58337H10.8533C10.6053 9.58351 10.3621 9.65283 10.1513 9.78356C9.94052 9.91429 9.77036 10.1012 9.65997 10.3234L7.35997 14.9167C7.04559 14.9128 6.73615 14.8379 6.45477 14.6976C6.17339 14.5574 5.92736 14.3553 5.73504 14.1066C5.54272 13.8578 5.4091 13.5689 5.34415 13.2612C5.2792 12.9536 5.28461 12.6353 5.35997 12.33Z" stroke="#1D2530" stroke-width="1.33333" stroke-linecap="round" stroke-linejoin="round"/>
</svg>
