<svg width="22" height="22" viewBox="0 0 22 22" fill="none" xmlns="http://www.w3.org/2000/svg">
<path d="M14.6667 19.25V17.4167C14.6667 16.4442 14.2804 15.5116 13.5927 14.8239C12.9051 14.1363 11.9725 13.75 11 13.75H5.49999C4.52753 13.75 3.5949 14.1363 2.90727 14.8239C2.21964 15.5116 1.83333 16.4442 1.83333 17.4167V19.25" stroke="#F8FAFC" stroke-width="2" stroke-linecap="round" stroke-linejoin="round"/>
<path d="M8.24999 10.0833C10.275 10.0833 11.9167 8.44171 11.9167 6.41667C11.9167 4.39162 10.275 2.75 8.24999 2.75C6.22495 2.75 4.58333 4.39162 4.58333 6.41667C4.58333 8.44171 6.22495 10.0833 8.24999 10.0833Z" stroke="#F8FAFC" stroke-width="2" stroke-linecap="round" stroke-linejoin="round"/>
<path d="M20.1667 19.25V17.4167C20.1661 16.6043 19.8957 15.815 19.3979 15.173C18.9002 14.5309 18.2033 14.0723 17.4167 13.8692" stroke="#F8FAFC" stroke-width="2" stroke-linecap="round" stroke-linejoin="round"/>
<path d="M14.6667 2.86917C15.4554 3.07111 16.1545 3.52981 16.6537 4.17295C17.1529 4.81609 17.4239 5.60709 17.4239 6.42125C17.4239 7.23541 17.1529 8.02641 16.6537 8.66955C16.1545 9.31269 15.4554 9.77139 14.6667 9.97333" stroke="#F8FAFC" stroke-width="2" stroke-linecap="round" stroke-linejoin="round"/>
</svg>
