<svg width="10" height="10" viewBox="0 0 10 10" fill="none" xmlns="http://www.w3.org/2000/svg">
<path d="M6.16526 0.0302328C6.39884 0.194387 6.57715 0.415527 6.76623 0.647973C6.80003 0.689125 6.83384 0.730278 6.86867 0.772678C6.97994 0.908283 7.09091 1.04426 7.20185 1.18027C7.27921 1.27478 7.35658 1.36928 7.43396 1.46377C7.59587 1.66159 7.75763 1.85959 7.91927 2.05773C8.10603 2.28664 8.29308 2.51517 8.4803 2.74351C8.6607 2.96357 8.84087 3.18392 9.02094 3.4044C9.09747 3.49805 9.17407 3.59163 9.25073 3.68512C9.35769 3.81564 9.46438 3.94649 9.571 4.07743C9.6028 4.1161 9.6346 4.15478 9.66736 4.19462C9.69636 4.23037 9.72535 4.26612 9.75523 4.30295C9.79307 4.34927 9.79307 4.34927 9.83167 4.39653C9.96667 4.58911 9.99374 4.74857 9.99636 4.99969C9.99756 5.05194 9.99876 5.10419 10 5.15802C9.95378 5.53445 9.68632 5.79529 9.47524 6.05198C9.44159 6.09332 9.40793 6.13465 9.37325 6.17724C9.26235 6.3133 9.15114 6.44898 9.03991 6.58463C8.96261 6.67922 8.88532 6.77382 8.80805 6.86843C8.64626 7.06641 8.48433 7.26419 8.32228 7.46184C8.13507 7.69019 7.94816 7.9189 7.76141 8.14782C7.58144 8.3684 7.40123 8.5887 7.22091 8.80887C7.14432 8.90245 7.06779 8.99611 6.99132 9.08985C6.88458 9.22063 6.77756 9.35108 6.67048 9.48144C6.63885 9.52032 6.60722 9.55921 6.57463 9.59927C6.5454 9.63472 6.51616 9.67018 6.48604 9.70671C6.44815 9.75297 6.44815 9.75297 6.4095 9.80017C6.21331 10.0058 6.03049 10.0043 5.7801 9.9983C5.55536 9.96883 5.4514 9.83808 5.30154 9.64519C5.20199 9.38303 5.19149 9.12599 5.23265 8.84179C5.34281 8.61742 5.46856 8.43698 5.61993 8.25282C5.64104 8.22699 5.66215 8.20116 5.6839 8.17455C5.75297 8.09017 5.82233 8.00617 5.8917 7.92216C5.93995 7.86336 5.98818 7.80454 6.03639 7.74569C6.16276 7.59157 6.28938 7.43777 6.41606 7.28402C6.54551 7.12681 6.67471 6.9693 6.80394 6.81181C7.05711 6.50336 7.31055 6.19524 7.56417 5.88732C7.52774 5.8873 7.49131 5.88727 7.45377 5.88724C6.56714 5.88646 5.68051 5.88426 4.79387 5.88048C4.3651 5.87868 3.93634 5.87737 3.50757 5.87719C3.13382 5.87703 2.76009 5.87597 2.38635 5.87382C2.18848 5.87271 1.99062 5.87206 1.79274 5.87249C1.60641 5.87288 1.42011 5.87206 1.23378 5.87032C1.16548 5.86989 1.09718 5.8699 1.02888 5.87039C0.448701 5.87414 0.448701 5.87414 0.256257 5.71248C0.077294 5.49205 0.0122077 5.31727 0 5.00941C0.00755519 4.74231 0.0558257 4.597 0.188111 4.38418C0.377257 4.19923 0.502644 4.15083 0.743411 4.14995C0.772711 4.14956 0.80201 4.14917 0.832197 4.14877C0.929839 4.14772 1.02744 4.14814 1.12508 4.14855C1.19528 4.1481 1.26549 4.14755 1.33569 4.14693C1.5259 4.14548 1.71611 4.14531 1.90633 4.14536C2.10525 4.14519 2.30417 4.14387 2.50309 4.14266C2.87961 4.14056 3.25613 4.13951 3.63266 4.13883C4.06139 4.13801 4.49012 4.13601 4.91884 4.13393C5.80062 4.12965 6.68239 4.12685 7.56417 4.12501C7.53621 4.09106 7.50825 4.0571 7.47944 4.02212C7.216 3.70207 6.95276 3.38178 6.68975 3.06121C6.55452 2.89641 6.41922 2.73171 6.28374 2.56722C6.153 2.40849 6.02246 2.2495 5.89207 2.09033C5.84228 2.02965 5.79242 1.96906 5.74249 1.90856C5.67256 1.82381 5.6029 1.73875 5.5333 1.6536C5.5126 1.62866 5.4919 1.60371 5.47057 1.57801C5.28277 1.34699 5.22014 1.19114 5.21676 0.866034C5.22106 0.596107 5.24539 0.43941 5.40222 0.237563C5.61955 -0.014884 5.87934 -0.0316759 6.16526 0.0302328Z" fill="black"/>
</svg>
