<svg width="17" height="16" viewBox="0 0 17 16" fill="none" xmlns="http://www.w3.org/2000/svg">
<path d="M10.5 1.33331H4.49999C4.14637 1.33331 3.80723 1.47379 3.55718 1.72384C3.30713 1.97389 3.16666 2.31302 3.16666 2.66665V13.3333C3.16666 13.6869 3.30713 14.0261 3.55718 14.2761C3.80723 14.5262 4.14637 14.6666 4.49999 14.6666H12.5C12.8536 14.6666 13.1928 14.5262 13.4428 14.2761C13.6928 14.0261 13.8333 13.6869 13.8333 13.3333V4.66665L10.5 1.33331Z" stroke="#1D2530" stroke-width="2" stroke-linecap="round" stroke-linejoin="round"/>
<path d="M9.83334 1.33331V3.99998C9.83334 4.3536 9.97382 4.69274 10.2239 4.94279C10.4739 5.19284 10.8131 5.33331 11.1667 5.33331H13.8333" stroke="#1D2530" stroke-width="2" stroke-linecap="round" stroke-linejoin="round"/>
<path d="M7.16668 6H5.83334" stroke="#1D2530" stroke-width="2" stroke-linecap="round" stroke-linejoin="round"/>
<path d="M11.1667 8.66669H5.83334" stroke="#1D2530" stroke-width="2" stroke-linecap="round" stroke-linejoin="round"/>
<path d="M11.1667 11.3333H5.83334" stroke="#1D2530" stroke-width="2" stroke-linecap="round" stroke-linejoin="round"/>
</svg>
