<svg width="17" height="16" viewBox="0 0 17 16" fill="none" xmlns="http://www.w3.org/2000/svg">
<path d="M12.41 5.33337C13.5146 5.33337 14.41 4.43794 14.41 3.33337C14.41 2.2288 13.5146 1.33337 12.41 1.33337C11.3055 1.33337 10.41 2.2288 10.41 3.33337C10.41 4.43794 11.3055 5.33337 12.41 5.33337Z" stroke="#1D2530" stroke-width="1.33333" stroke-linecap="round" stroke-linejoin="round"/>
<path d="M4.41003 10C5.5146 10 6.41003 9.10457 6.41003 8C6.41003 6.89543 5.5146 6 4.41003 6C3.30546 6 2.41003 6.89543 2.41003 8C2.41003 9.10457 3.30546 10 4.41003 10Z" stroke="#1D2530" stroke-width="1.33333" stroke-linecap="round" stroke-linejoin="round"/>
<path d="M12.41 14.6666C13.5146 14.6666 14.41 13.7712 14.41 12.6666C14.41 11.5621 13.5146 10.6666 12.41 10.6666C11.3055 10.6666 10.41 11.5621 10.41 12.6666C10.41 13.7712 11.3055 14.6666 12.41 14.6666Z" stroke="#1D2530" stroke-width="1.33333" stroke-linecap="round" stroke-linejoin="round"/>
<path d="M6.13672 9.00671L10.6901 11.66" stroke="#1D2530" stroke-width="1.33333" stroke-linecap="round" stroke-linejoin="round"/>
<path d="M10.6834 4.33997L6.13672 6.9933" stroke="#1D2530" stroke-width="1.33333" stroke-linecap="round" stroke-linejoin="round"/>
</svg>
